<?xml version="1.0" encoding="UTF-8" standalone="no"?>
<svg
   xmlns:dc="http://purl.org/dc/elements/1.1/"
   xmlns:cc="http://creativecommons.org/ns#"
   xmlns:rdf="http://www.w3.org/1999/02/22-rdf-syntax-ns#"
   xmlns:svg="http://www.w3.org/2000/svg"
   xmlns="http://www.w3.org/2000/svg"
   xmlns:sodipodi="http://sodipodi.sourceforge.net/DTD/sodipodi-0.dtd"
   xmlns:inkscape="http://www.inkscape.org/namespaces/inkscape"
   viewBox="0 0 16 16"
   version="1.1"
   id="svg8"
   sodipodi:docname="next.svg"
   inkscape:version="0.92.2 2405546, 2018-03-11">
  <metadata
     id="metadata14">
    <rdf:RDF>
      <cc:Work
         rdf:about="">
        <dc:format>image/svg+xml</dc:format>
        <dc:type
           rdf:resource="http://purl.org/dc/dcmitype/StillImage" />
      </cc:Work>
    </rdf:RDF>
  </metadata>
  <defs
     id="defs12" />
  <sodipodi:namedview
     pagecolor="#ffffff"
     bordercolor="#666666"
     borderopacity="1"
     objecttolerance="10"
     gridtolerance="10"
     guidetolerance="10"
     inkscape:pageopacity="0"
     inkscape:pageshadow="2"
     inkscape:window-width="705"
     inkscape:window-height="480"
     id="namedview10"
     showgrid="false"
     inkscape:zoom="14.75"
     inkscape:cx="-3.0847458"
     inkscape:cy="8"
     inkscape:window-x="0"
     inkscape:window-y="31"
     inkscape:window-maximized="0"
     inkscape:current-layer="svg8" />
  <path
     d="m 1.01 4 c 0.179 0.008 0.354 0.059 0.505 0.156 l 5.05 3 c 0.285 0.18 0.441 0.512 0.441 0.844 c 0 0.332 -0.157 0.664 -0.441 0.844 l -5.05 3 c -0.15 0.097 -0.326 0.148 -0.505 0.156 l -0.158 0 -0.851 0 l 0 -8 0.851 0 z"
     style="fill:#bfbfbf;color:#000"
     id="path2" />
  <path
     d="m 8.01 4 c 0.179 0.008 0.354 0.059 0.505 0.156 l 5.05 3 c 0.285 0.18 0.441 0.512 0.441 0.844 c 0 0.332 -0.157 0.664 -0.441 0.844 l -5.05 3 c -0.15 0.097 -0.326 0.148 -0.505 0.156 l -0.158 0 -0.851 0 0 -8 0.851 0 z"
     style="fill:#bfbfbf;color:#000"
     id="path4" />
  <rect
     width="2"
     height="8"
     x="14"
     y="4"
     rx="0.492"
     ry="0.513"
     style="fill:#bfbfbf"
     id="rect6" />
</svg>
