<?xml version="1.0" encoding="UTF-8" standalone="no"?>
<svg
   xmlns:dc="http://purl.org/dc/elements/1.1/"
   xmlns:cc="http://creativecommons.org/ns#"
   xmlns:rdf="http://www.w3.org/1999/02/22-rdf-syntax-ns#"
   xmlns:svg="http://www.w3.org/2000/svg"
   xmlns="http://www.w3.org/2000/svg"
   xmlns:sodipodi="http://sodipodi.sourceforge.net/DTD/sodipodi-0.dtd"
   xmlns:inkscape="http://www.inkscape.org/namespaces/inkscape"
   viewBox="0 0 16 16"
   version="1.1"
   id="svg4"
   sodipodi:docname="repeat_all.svg"
   inkscape:version="0.92.2 2405546, 2018-03-11">
  <metadata
     id="metadata10">
    <rdf:RDF>
      <cc:Work
         rdf:about="">
        <dc:format>image/svg+xml</dc:format>
        <dc:type
           rdf:resource="http://purl.org/dc/dcmitype/StillImage" />
      </cc:Work>
    </rdf:RDF>
  </metadata>
  <defs
     id="defs8" />
  <sodipodi:namedview
     pagecolor="#ffffff"
     bordercolor="#666666"
     borderopacity="1"
     objecttolerance="10"
     gridtolerance="10"
     guidetolerance="10"
     inkscape:pageopacity="0"
     inkscape:pageshadow="2"
     inkscape:window-width="695"
     inkscape:window-height="480"
     id="namedview6"
     showgrid="false"
     inkscape:zoom="21.030273"
     inkscape:cx="-3.9168795"
     inkscape:cy="8"
     inkscape:window-x="0"
     inkscape:window-y="31"
     inkscape:window-maximized="0"
     inkscape:current-layer="svg4" />
  <path
     d="m 4 3 8 0 c 3 0 3 0 3 3 l 0 4 c 0 3 0 3 -3 3 -1.125 0 -0.438 -0.009 -1.562 -0.009 0.376 0.321 0.725 0.795 0.529 1.315 -0.208 0.755 -1.298 0.943 -1.765 0.325 c -0.871 -0.878 -1.354 -1.738 -2.202 -2.639 c 0.898 -0.95 1.429 -1.864 2.354 -2.787 0.608 -0.562 1.734 -0.058 1.686 0.78 0.02 0.435 -0.32 0.731 -0.603 1.01 1.256 -0.012 0.308 0.054 1.562 0.009 1 0 1 0 1 -1 l 0 -4 c 0 -1 0 -1 -1 -1 l -8 0 c -1 0 -1 0 -1 1 l 0 4 c 0 1 1 1 1 1 l 1 0 c 0 0 1 0 1 1 0 1 0 1 -1 1 l -1 0 c -3 0 -3 0 -3 -3 l 0 -4 c 0 -3 0 -3 3 -3"
     style="fill:#bfbfbf;fill-opacity:1;color:#bebebe"
     id="path2" />
</svg>
