<?xml version="1.0" encoding="UTF-8" standalone="no"?>
<svg
   xmlns:dc="http://purl.org/dc/elements/1.1/"
   xmlns:cc="http://creativecommons.org/ns#"
   xmlns:rdf="http://www.w3.org/1999/02/22-rdf-syntax-ns#"
   xmlns:svg="http://www.w3.org/2000/svg"
   xmlns="http://www.w3.org/2000/svg"
   xmlns:sodipodi="http://sodipodi.sourceforge.net/DTD/sodipodi-0.dtd"
   xmlns:inkscape="http://www.inkscape.org/namespaces/inkscape"
   viewBox="0 0 16 16"
   version="1.1"
   id="svg6"
   sodipodi:docname="repeat_single.svg"
   inkscape:version="0.92.2 2405546, 2018-03-11">
  <metadata
     id="metadata12">
    <rdf:RDF>
      <cc:Work
         rdf:about="">
        <dc:format>image/svg+xml</dc:format>
        <dc:type
           rdf:resource="http://purl.org/dc/dcmitype/StillImage" />
      </cc:Work>
    </rdf:RDF>
  </metadata>
  <defs
     id="defs10" />
  <sodipodi:namedview
     pagecolor="#ffffff"
     bordercolor="#666666"
     borderopacity="1"
     objecttolerance="10"
     gridtolerance="10"
     guidetolerance="10"
     inkscape:pageopacity="0"
     inkscape:pageshadow="2"
     inkscape:window-width="695"
     inkscape:window-height="480"
     id="namedview8"
     showgrid="false"
     inkscape:zoom="21.030273"
     inkscape:cx="-3.9168795"
     inkscape:cy="8"
     inkscape:window-x="0"
     inkscape:window-y="31"
     inkscape:window-maximized="0"
     inkscape:current-layer="svg6" />
  <path
     d="M 7.969 3 A 4.5 4.5 0 0 1 8 3.5 A 4.5 4.5 0 0 1 7.736 5 L 12 5 C 13 5 13 5 13 6 L 13 10 C 13 11 13 11 12 11 C 10.746 11.04 11.694 10.978 10.438 10.99 C 10.72 10.714 11.06 10.418 11.04 9.982 C 11.09 9.145 9.961 8.641 9.354 9.203 C 8.428 10.127 7.898 11.04 7 11.99 C 7.848 12.891 8.33 13.751 9.201 14.629 C 9.669 15.247 10.758 15.06 10.967 14.305 C 11.163 13.785 10.813 13.312 10.438 12.99 C 11.562 12.99 10.875 13 12 13 C 15 13 15 13 15 10 L 15 6 C 15 3 15 3 12 3 L 7.969 3 z M 1 7.238 L 1 10 C 1 13 1 13 4 13 L 5 13 C 6 13 6 13 6 12 C 6 11 5 11 5 11 L 4 11 C 4 11 3 11 3 10 L 3 7.967 A 4.5 4.5 0 0 1 1 7.238 z"
     style="fill:#bfbfbf;fill-opacity:1;color:#bebebe"
     id="path2" />
  <path
     d="m 3.5 0 c -1.933 0 -3.5 1.567 -3.5 3.5 0 1.933 1.567 3.5 3.5 3.5 1.933 0 3.5 -1.567 3.5 -3.5 0 -1.933 -1.567 -3.5 -3.5 -3.5 m -0.5 1 1 0 0 5 -1 0"
     style="fill:#bfbfbf;opacity:1;fill-opacity:1;stroke:none;fill-rule:nonzero"
     id="path4" />
</svg>
