<?xml version="1.0" encoding="UTF-8" standalone="no"?>
<svg
   xmlns:dc="http://purl.org/dc/elements/1.1/"
   xmlns:cc="http://creativecommons.org/ns#"
   xmlns:rdf="http://www.w3.org/1999/02/22-rdf-syntax-ns#"
   xmlns:svg="http://www.w3.org/2000/svg"
   xmlns="http://www.w3.org/2000/svg"
   xmlns:sodipodi="http://sodipodi.sourceforge.net/DTD/sodipodi-0.dtd"
   xmlns:inkscape="http://www.inkscape.org/namespaces/inkscape"
   width="16"
   viewBox="0 0 16 16"
   height="16"
   version="1.1"
   id="svg4"
   sodipodi:docname="tab_hover.svg"
   inkscape:version="0.92.2 2405546, 2018-03-11">
  <metadata
     id="metadata10">
    <rdf:RDF>
      <cc:Work
         rdf:about="">
        <dc:format>image/svg+xml</dc:format>
        <dc:type
           rdf:resource="http://purl.org/dc/dcmitype/StillImage" />
      </cc:Work>
    </rdf:RDF>
  </metadata>
  <defs
     id="defs8" />
  <sodipodi:namedview
     pagecolor="#ffffff"
     bordercolor="#666666"
     borderopacity="1"
     objecttolerance="10"
     gridtolerance="10"
     guidetolerance="10"
     inkscape:pageopacity="0"
     inkscape:pageshadow="2"
     inkscape:window-width="1366"
     inkscape:window-height="714"
     id="namedview6"
     showgrid="false"
     inkscape:zoom="35.9375"
     inkscape:cx="-1.2382609"
     inkscape:cy="8.6956522"
     inkscape:window-x="0"
     inkscape:window-y="31"
     inkscape:window-maximized="1"
     inkscape:current-layer="svg4" />
  <path
     style="fill:#ffffff;fill-rule:evenodd;stroke-width:0.74179697"
     d="m 6.8520496,5.9130791 c -0.1271665,-9.792e-4 -0.2743613,0.01806 -0.4408301,0.04632 -0.03249,0.2317563 -0.020072,0.4268477 0,0.6021786 0.0015,0.056064 -0.00678,0.1088642 0,0.162125 0.021679,0.1712066 0.084935,0.3385492 0.2088145,0.4863749 0.041294,0.049272 0.081102,0.091668 0.1392104,0.138965 0.2531813,0.2721194 0.5241836,0.5266661 0.7888535,0.787466 l 0.7888544,0.787466 C 8.0711055,9.1835828 7.8127677,9.4506383 7.5480979,9.711437 c -0.262781,0.2625878 -0.5317084,0.519105 -0.7888545,0.787465 -0.054878,0.03946 -0.099058,0.09445 -0.1392102,0.13896 -0.047363,0.05251 -0.085872,0.103776 -0.1160088,0.162126 -0.055692,0.10782 -0.078695,0.22606 -0.092803,0.34741 -0.00881,0.07602 -0.023551,0.15293 -0.023198,0.231606 -0.00205,0.03654 -6.208e-4,0.07654 0,0.1158 0.0049,0.134355 0.021041,0.262589 0.023198,0.393731 0.1333169,0.01864 0.2584492,0.0214 0.3712257,0.02316 0.021079,3.26e-4 0.04914,2.87e-4 0.069605,0 0.05232,-7.33e-4 0.090496,-0.01834 0.1392104,-0.02316 0.00797,-8.14e-4 0.01536,8.9e-4 0.023198,0 0.238364,-0.0083 0.4635438,-0.04118 0.6496446,-0.208446 0.04936,-0.04122 0.091829,-0.08095 0.1392107,-0.13896 L 9.3810243,9.9661996 10.958734,11.541129 c 0.03952,0.05478 0.09461,0.09888 0.139211,0.13896 0.0526,0.04728 0.103956,0.08573 0.16241,0.1158 0.103296,0.05432 0.210484,0.0782 0.324822,0.09264 0.128494,0.017 0.259749,0.0286 0.394426,0.02316 0.112776,-0.0018 0.237907,-0.0044 0.371227,-0.02316 0.04157,-0.243819 0.04433,-0.43434 0.02316,-0.602177 -0.0026,-0.06414 -0.01356,-0.12339 -0.02316,-0.185285 C 12.31621,10.87811 12.22516,10.6587 12.002804,10.4989 11.749622,10.226783 11.478621,9.9722392 11.213951,9.7114382 l -0.788855,-0.7874624 1.577708,-1.574932 c 0.05809,-0.047304 0.09793,-0.089688 0.13921,-0.138965 0.04607,-0.053148 0.08658,-0.1063201 0.116004,-0.162125 0.0508,-0.096312 0.07748,-0.1952402 0.09278,-0.3010887 0.0022,-0.0072 -0.002,-0.015876 0,-0.02316 0.0502,-0.2149622 0.04288,-0.4587449 0,-0.7643048 -0.244232,-0.041472 -0.435115,-0.044256 -0.60324,-0.02316 -0.06004,0.00864 -0.130476,0.0066 -0.185612,0.02316 -0.02299,0.00648 -0.04718,0.015348 -0.0696,0.02316 C 11.29499,6.0247523 11.102741,6.107142 10.958737,6.3068102 10.686131,6.559546 10.431136,6.8300707 10.169875,7.094275 9.9086145,7.3584781 9.6410885,7.6163607 9.3810203,7.881741 9.1281196,7.6167291 8.8744608,7.3528237 8.6153674,7.094275 c -0.00389,-0.00384 -0.019356,0.00384 -0.023198,0 C 8.3309058,6.8300708 8.0759115,6.5595461 7.8033122,6.3068103 c -0.039511,-0.05478 -0.094614,-0.09888 -0.1392107,-0.138965 -0.030918,-0.027792 -0.059773,-0.04788 -0.092807,-0.06948 -0.017574,-0.01152 -0.028289,-0.036432 -0.046404,-0.04632 -0.00688,-0.0036 -0.01634,0.00336 -0.023198,0 -0.094565,-0.048672 -0.1962706,-0.07686 -0.3016229,-0.09264 -0.014298,-0.0018 -0.031916,0.00132 -0.046408,0 -0.092742,-0.022392 -0.1911109,-0.045468 -0.3016182,-0.04632 z"
     id="path2"
     inkscape:connector-curvature="0" />
</svg>
