<?xml version="1.0" encoding="UTF-8" standalone="no"?>
<svg
   xmlns:dc="http://purl.org/dc/elements/1.1/"
   xmlns:cc="http://creativecommons.org/ns#"
   xmlns:rdf="http://www.w3.org/1999/02/22-rdf-syntax-ns#"
   xmlns:svg="http://www.w3.org/2000/svg"
   xmlns="http://www.w3.org/2000/svg"
   xmlns:sodipodi="http://sodipodi.sourceforge.net/DTD/sodipodi-0.dtd"
   xmlns:inkscape="http://www.inkscape.org/namespaces/inkscape"
   viewBox="0 0 16 16"
   version="1.1"
   id="svg12"
   sodipodi:docname="edit-cut-symbolic.svg"
   inkscape:version="0.92.2 2405546, 2018-03-11">
  <metadata
     id="metadata18">
    <rdf:RDF>
      <cc:Work
         rdf:about="">
        <dc:format>image/svg+xml</dc:format>
        <dc:type
           rdf:resource="http://purl.org/dc/dcmitype/StillImage" />
      </cc:Work>
    </rdf:RDF>
  </metadata>
  <defs
     id="defs16" />
  <sodipodi:namedview
     pagecolor="#ffffff"
     bordercolor="#666666"
     borderopacity="1"
     objecttolerance="10"
     gridtolerance="10"
     guidetolerance="10"
     inkscape:pageopacity="0"
     inkscape:pageshadow="2"
     inkscape:window-width="1366"
     inkscape:window-height="714"
     id="namedview14"
     showgrid="false"
     inkscape:zoom="14.75"
     inkscape:cx="8"
     inkscape:cy="8"
     inkscape:window-x="0"
     inkscape:window-y="31"
     inkscape:window-maximized="1"
     inkscape:current-layer="svg12" />
  <g
     transform="matrix(0.7709574,0,0,0.76294892,-29.005955,-507.75957)"
     style="fill:#404040"
     id="g10">
    <g
       style="color:#000000;fill:#404040"
       id="g6">
      <path
         d="m 43.5,676.99 c -1.905,0 -3.492,1.575 -3.492,3.513 0,1.938 1.588,3.513 3.492,3.513 1.905,0 3.492,-1.575 3.492,-3.513 0,-1.938 -1.588,-3.513 -3.492,-3.513 z m 0,2.026 c 0.857,0 1.508,0.664 1.508,1.487 0,0.823 -0.651,1.487 -1.508,1.487 -0.857,0 -1.508,-0.664 -1.508,-1.487 0,-0.823 0.651,-1.487 1.508,-1.487 z"
         id="path2"
         inkscape:connector-curvature="0"
         style="fill:#404040" />
      <path
         d="m 52.5,676.99 c -1.905,0 -3.492,1.575 -3.492,3.513 0,1.938 1.588,3.513 3.492,3.513 1.905,0 3.492,-1.575 3.492,-3.513 0,-1.938 -1.588,-3.513 -3.492,-3.513 z m 0,2.026 c 0.857,0 1.508,0.664 1.508,1.487 0,0.823 -0.651,1.487 -1.508,1.487 -0.857,0 -1.508,-0.664 -1.508,-1.487 0,-0.823 0.651,-1.487 1.508,-1.487 z"
         id="path4"
         inkscape:connector-curvature="0"
         style="fill:#404040" />
    </g>
    <path
       d="m 43.1,668 c -1.06,0.554 -1.407,1.759 -0.794,2.719 l 4.42,7.281 -1.746,2.368 1.414,2.085 1.61,-2.484 1.579,2.484 1.401,-1.997 -1.702,-2.456 4.42,-7.281 c 0.612,-0.96 0.266,-2.165 -0.794,-2.719 l -4.904,8 z"
       id="path8"
       inkscape:connector-curvature="0"
       style="fill:#404040" />
  </g>
</svg>
