<?xml version="1.0" encoding="UTF-8" standalone="no"?>
<svg
   xmlns:dc="http://purl.org/dc/elements/1.1/"
   xmlns:cc="http://creativecommons.org/ns#"
   xmlns:rdf="http://www.w3.org/1999/02/22-rdf-syntax-ns#"
   xmlns:svg="http://www.w3.org/2000/svg"
   xmlns="http://www.w3.org/2000/svg"
   xmlns:sodipodi="http://sodipodi.sourceforge.net/DTD/sodipodi-0.dtd"
   xmlns:inkscape="http://www.inkscape.org/namespaces/inkscape"
   viewBox="0 0 16 16"
   version="1.1"
   id="svg8"
   sodipodi:docname="expand.svg"
   inkscape:version="0.92.2 2405546, 2018-03-11">
  <metadata
     id="metadata14">
    <rdf:RDF>
      <cc:Work
         rdf:about="">
        <dc:format>image/svg+xml</dc:format>
        <dc:type
           rdf:resource="http://purl.org/dc/dcmitype/StillImage" />
      </cc:Work>
    </rdf:RDF>
  </metadata>
  <defs
     id="defs12" />
  <sodipodi:namedview
     pagecolor="#ffffff"
     bordercolor="#666666"
     borderopacity="1"
     objecttolerance="10"
     gridtolerance="10"
     guidetolerance="10"
     inkscape:pageopacity="0"
     inkscape:pageshadow="2"
     inkscape:window-width="1366"
     inkscape:window-height="714"
     id="namedview10"
     showgrid="false"
     inkscape:zoom="14.75"
     inkscape:cx="-3.4237288"
     inkscape:cy="8"
     inkscape:window-x="0"
     inkscape:window-y="31"
     inkscape:window-maximized="1"
     inkscape:current-layer="g6" />
  <g
     transform="translate(-41.0002 -767)"
     style="fill:#404040;color:#bebebe"
     id="g6">
    <path
       d="m 47.406,772 v 1 c 0,0.257 -0.13,0.528 -0.313,0.719 l -1.281,1.281 1.281,1.281 c 0.183,0.19 0.313,0.462 0.313,0.719 v 1 h -1 c -0.309,0 -0.552,-0.09 -0.75,-0.281 L 43,775 45.656,772.281 C 45.854,772.09 46.097,772 46.406,772 Z"
       id="path2"
       style="fill:#404040"
       inkscape:connector-curvature="0" />
    <path
       d="m 51.004,772 v 1 c 0,0.257 0.13,0.528 0.313,0.719 l 1.281,1.281 -1.281,1.281 c -0.183,0.19 -0.313,0.462 -0.313,0.719 v 1 h 1 c 0.309,0 0.552,-0.09 0.75,-0.281 L 55.41,775 52.754,772.281 C 52.556,772.09 52.313,772 52.004,772 Z"
       id="path4"
       style="fill:#404040"
       inkscape:connector-curvature="0" />
  </g>
</svg>
