<?xml version="1.0" encoding="UTF-8" standalone="no"?>
<svg
   xmlns:dc="http://purl.org/dc/elements/1.1/"
   xmlns:cc="http://creativecommons.org/ns#"
   xmlns:rdf="http://www.w3.org/1999/02/22-rdf-syntax-ns#"
   xmlns:svg="http://www.w3.org/2000/svg"
   xmlns="http://www.w3.org/2000/svg"
   xmlns:sodipodi="http://sodipodi.sourceforge.net/DTD/sodipodi-0.dtd"
   xmlns:inkscape="http://www.inkscape.org/namespaces/inkscape"
   viewBox="0 0 16 16"
   version="1.1"
   id="svg14"
   sodipodi:docname="file_inactive.svg"
   inkscape:version="0.92.2 2405546, 2018-03-11">
  <metadata
     id="metadata20">
    <rdf:RDF>
      <cc:Work
         rdf:about="">
        <dc:format>image/svg+xml</dc:format>
        <dc:type
           rdf:resource="http://purl.org/dc/dcmitype/StillImage" />
      </cc:Work>
    </rdf:RDF>
  </metadata>
  <defs
     id="defs18" />
  <sodipodi:namedview
     pagecolor="#ffffff"
     bordercolor="#666666"
     borderopacity="1"
     objecttolerance="10"
     gridtolerance="10"
     guidetolerance="10"
     inkscape:pageopacity="0"
     inkscape:pageshadow="2"
     inkscape:window-width="1366"
     inkscape:window-height="714"
     id="namedview16"
     showgrid="false"
     inkscape:zoom="14.75"
     inkscape:cx="8"
     inkscape:cy="8"
     inkscape:window-x="0"
     inkscape:window-y="31"
     inkscape:window-maximized="1"
     inkscape:current-layer="svg14" />
  <path
     d="m 2.668 1 c -0.344 0 -0.668 0.339 -0.668 0.697 l 0 12.605 c 0 0.338 0.344 0.697 0.668 0.697 l 10.664 0 c 0.324 0 0.668 -0.359 0.668 -0.697 l 0 -9.303 -4 -4 m -7 1 7 0 0 2.383 c 0 0.299 0.337 0.733 0.613 0.617 l 2.387 0 0 9 -10 0"
     style="fill:#bebebe;fill-opacity:1"
     id="path2" />
  <g
     transform="translate(15.491527,1.084523)"
     style="fill:#bebebe;fill-opacity:1"
     id="g12">
    <path
       d="m -11.492 6.915 0 1 8 0 0 -1 z"
       id="path4" />
    <path
       d="m -11.492 8.915 0 1 8 0 0 -1 z"
       id="path6" />
    <path
       d="m -11.492 10.915 0 1 8 0 0 -1 z"
       id="path8" />
    <path
       d="m -11.492 4.915 0 1 8 0 0 -1 z"
       id="path10" />
  </g>
  <path
     style="fill:#ffffff;fill-opacity:1;stroke-width:0.06779661"
     d="M 3.0101695,8 V 2.0338983 h 3.4915254 3.4915254 v 1.2829339 c 0,1.2812976 2.034e-4,1.2831999 0.1755177,1.4915254 l 0.175519,0.2085916 h 1.316007 1.316007 V 9.4915254 13.966102 H 7.9932203 3.0101695 Z m 9.0169495,4.508475 V 12 H 7.9932203 3.959322 v 0.508475 0.508474 h 4.0338983 4.0338987 z m -0.0141,-2.01695 0.0198,-0.5254233 H 7.9960721 3.959322 v 0.4971753 c 0,0.273446 0.020581,0.517756 0.045735,0.542909 0.025154,0.02515 1.8327812,0.03787 4.0169492,0.02825 l 3.9712138,-0.01749 z m 0.0141,-1.9830504 V 8 H 7.9932203 3.959322 v 0.5084746 0.5084746 h 4.0338983 4.0338987 z m -0.0141,-2.0169492 0.0198,-0.5254237 H 7.9960721 3.959322 v 0.4971751 c 0,0.2734464 0.020581,0.5177558 0.045735,0.54291 0.025154,0.025154 1.8327812,0.037866 4.0169492,0.028249 L 11.99322,7.0169498 Z"
     id="path827"
     inkscape:connector-curvature="0" />
</svg>
