<?xml version="1.0" encoding="UTF-8" standalone="no"?>
<svg
   xmlns:dc="http://purl.org/dc/elements/1.1/"
   xmlns:cc="http://creativecommons.org/ns#"
   xmlns:rdf="http://www.w3.org/1999/02/22-rdf-syntax-ns#"
   xmlns:svg="http://www.w3.org/2000/svg"
   xmlns="http://www.w3.org/2000/svg"
   xmlns:sodipodi="http://sodipodi.sourceforge.net/DTD/sodipodi-0.dtd"
   xmlns:inkscape="http://www.inkscape.org/namespaces/inkscape"
   width="16"
   viewBox="0 0 16 16"
   height="16"
   version="1.1"
   id="svg4"
   sodipodi:docname="filter_clear.svg"
   inkscape:version="0.92.2 2405546, 2018-03-11">
  <metadata
     id="metadata10">
    <rdf:RDF>
      <cc:Work
         rdf:about="">
        <dc:format>image/svg+xml</dc:format>
        <dc:type
           rdf:resource="http://purl.org/dc/dcmitype/StillImage" />
      </cc:Work>
    </rdf:RDF>
  </metadata>
  <defs
     id="defs8" />
  <sodipodi:namedview
     pagecolor="#ffffff"
     bordercolor="#666666"
     borderopacity="1"
     objecttolerance="10"
     gridtolerance="10"
     guidetolerance="10"
     inkscape:pageopacity="0"
     inkscape:pageshadow="2"
     inkscape:window-width="1366"
     inkscape:window-height="714"
     id="namedview6"
     showgrid="false"
     inkscape:zoom="35.9375"
     inkscape:cx="7.0457571"
     inkscape:cy="8.6956522"
     inkscape:window-x="0"
     inkscape:window-y="31"
     inkscape:window-maximized="1"
     inkscape:current-layer="svg4" />
  <path
     style="fill:#808080;fill-rule:evenodd;stroke-width:0.86542976"
     d="m 5.0426101,4.5000418 c -0.1483609,-0.00114 -0.320088,0.02107 -0.5143016,0.05404 -0.037905,0.2703825 -0.023417,0.4979892 0,0.702542 0.00175,0.065408 -0.00791,0.1270082 0,0.1891458 0.025292,0.1997412 0.099091,0.3949743 0.2436169,0.5674376 0.048176,0.057484 0.094619,0.106946 0.162412,0.1621259 0.295378,0.3174727 0.6115471,0.614444 0.9203285,0.9187107 L 6.7749956,8.0127545 C 6.4648411,8.3156308 6.1634472,8.6271954 5.8546659,8.9314613 5.5480883,9.2378138 5.2343398,9.5370838 4.9343362,9.8501698 c -0.064024,0.04604 -0.1155676,0.110192 -0.1624118,0.1621202 -0.055257,0.06127 -0.100184,0.121072 -0.1353435,0.189147 -0.064974,0.125791 -0.091811,0.263737 -0.1082702,0.405312 -0.010278,0.08869 -0.027476,0.178419 -0.027064,0.270208 -0.0024,0.04263 -7.243e-4,0.0893 0,0.1351 0.00572,0.156747 0.024548,0.306354 0.027064,0.459353 0.1555363,0.02175 0.3015239,0.02497 0.4330965,0.02702 0.024592,3.79e-4 0.05733,3.33e-4 0.081206,0 0.06104,-7.78e-4 0.1055787,-0.0214 0.1624121,-0.02702 0.0093,-0.001 0.01792,0.0011 0.027064,0 0.2780912,-0.0097 0.5408008,-0.04804 0.7579183,-0.243187 0.057587,-0.04809 0.1071338,-0.09444 0.1624124,-0.16212 L 7.9930788,9.2286838 9.833739,11.066103 c 0.046107,0.06391 0.1103783,0.11536 0.1624132,0.16212 0.061367,0.05516 0.1212808,0.100018 0.1894778,0.1351 0.120512,0.06337 0.245565,0.09123 0.378959,0.10808 0.149909,0.01983 0.30304,0.03336 0.460163,0.02702 0.131572,-0.0021 0.277558,-0.0051 0.433099,-0.02702 0.0485,-0.284456 0.05172,-0.50673 0.02701,-0.702541 -0.003,-0.07483 -0.01582,-0.143954 -0.02701,-0.216165 C 11.417461,10.29258 11.311236,10.036601 11.05182,9.8501678 10.756442,9.5326988 10.440274,9.2357308 10.131492,8.9314621 L 9.2111615,8.0127559 11.05182,6.1753345 c 0.06777,-0.055188 0.114252,-0.1046361 0.162411,-0.1621259 0.05375,-0.062006 0.101011,-0.1240401 0.135338,-0.1891459 0.05927,-0.112364 0.09039,-0.2277803 0.108244,-0.3512702 0.0026,-0.0084 -0.0023,-0.018522 0,-0.02702 0.05857,-0.2507894 0.05003,-0.5352026 0,-0.8916893 -0.284937,-0.048384 -0.507634,-0.051632 -0.703779,-0.02702 -0.07005,0.01008 -0.152222,0.0077 -0.216548,0.02702 -0.02683,0.00755 -0.05504,0.017906 -0.0812,0.02702 C 10.226038,4.6303272 10.001747,4.7264485 9.8337421,4.9593949 9.5157027,5.2542534 9.2182081,5.5698657 8.913404,5.8781042 8.6085999,6.1863412 8.2964869,6.4872044 7.9930742,6.7968148 7.6980236,6.4876342 7.4020885,6.1797444 7.099813,5.8781042 c -0.00453,-0.00448 -0.022582,0.00448 -0.027064,0 C 6.7679413,5.5698657 6.4704481,5.2542536 6.1524158,4.959395 6.1063198,4.895485 6.0420328,4.844035 5.9900034,4.7972691 c -0.036071,-0.032424 -0.069735,-0.05586 -0.1082748,-0.08106 -0.020503,-0.01344 -0.033004,-0.042504 -0.054138,-0.05404 -0.00803,-0.0042 -0.019063,0.00392 -0.027064,0 -0.110326,-0.056784 -0.2289825,-0.08967 -0.3518935,-0.10808 -0.016681,-0.0021 -0.037235,0.00154 -0.054143,0 -0.1081989,-0.026124 -0.2229625,-0.053046 -0.3518876,-0.05404 z"
     id="path2"
     inkscape:connector-curvature="0" />
</svg>
