<?xml version="1.0" encoding="UTF-8" standalone="no"?>
<svg
   xmlns:dc="http://purl.org/dc/elements/1.1/"
   xmlns:cc="http://creativecommons.org/ns#"
   xmlns:rdf="http://www.w3.org/1999/02/22-rdf-syntax-ns#"
   xmlns:svg="http://www.w3.org/2000/svg"
   xmlns="http://www.w3.org/2000/svg"
   xmlns:sodipodi="http://sodipodi.sourceforge.net/DTD/sodipodi-0.dtd"
   xmlns:inkscape="http://www.inkscape.org/namespaces/inkscape"
   viewBox="0 0 16 16"
   version="1.1"
   id="svg10"
   sodipodi:docname="backward.svg"
   inkscape:version="0.92.2 2405546, 2018-03-11">
  <metadata
     id="metadata16">
    <rdf:RDF>
      <cc:Work
         rdf:about="">
        <dc:format>image/svg+xml</dc:format>
        <dc:type
           rdf:resource="http://purl.org/dc/dcmitype/StillImage" />
      </cc:Work>
    </rdf:RDF>
  </metadata>
  <defs
     id="defs14" />
  <sodipodi:namedview
     pagecolor="#ffffff"
     bordercolor="#666666"
     borderopacity="1"
     objecttolerance="10"
     gridtolerance="10"
     guidetolerance="10"
     inkscape:pageopacity="0"
     inkscape:pageshadow="2"
     inkscape:window-width="705"
     inkscape:window-height="480"
     id="namedview12"
     showgrid="false"
     inkscape:zoom="14.75"
     inkscape:cx="-3.4237288"
     inkscape:cy="8"
     inkscape:window-x="0"
     inkscape:window-y="31"
     inkscape:window-maximized="0"
     inkscape:current-layer="svg10" />
  <g
     transform="matrix(-1 0 0 1 36.00005 -487)"
     style="fill:#404040;color:#000"
     id="g8">
    <path
       d="m 55 610 c -0.177 0.008 -0.351 0.059 -0.5 0.156 l -5 3 c -0.282 0.18 -0.438 0.512 -0.438 0.844 0 0.332 0.155 0.664 0.438 0.844 l 5 3 c 0.149 0.097 0.323 0.148 0.5 0.156 l 0.156 0 0.844 0 0 -8 -0.844 0 z"
       transform="matrix(-1 0 0 1 76.00025 -119)"
       id="path2"
       style="fill:#404040" />
    <path
       d="m 34 491 0 8 2 0 0 -8 z"
       id="path4"
       style="fill:#404040" />
    <path
       d="m 28 491 c 0.177 0.008 0.351 0.059 0.5 0.156 l 5 3 c 0.282 0.18 0.438 0.512 0.438 0.844 0 0.332 -0.155 0.664 -0.438 0.844 l -5 3 c -0.149 0.097 -0.323 0.148 -0.5 0.156 l -0.156 0 -0.844 0 0 -8 0.844 0 z"
       id="path6"
       style="fill:#404040" />
  </g>
</svg>
