<?xml version="1.0" encoding="UTF-8" standalone="no"?>
<!-- Created with Inkscape (http://www.inkscape.org/) -->

<svg
   xmlns:dc="http://purl.org/dc/elements/1.1/"
   xmlns:cc="http://creativecommons.org/ns#"
   xmlns:rdf="http://www.w3.org/1999/02/22-rdf-syntax-ns#"
   xmlns:svg="http://www.w3.org/2000/svg"
   xmlns="http://www.w3.org/2000/svg"
   xmlns:sodipodi="http://sodipodi.sourceforge.net/DTD/sodipodi-0.dtd"
   xmlns:inkscape="http://www.inkscape.org/namespaces/inkscape"
   width="72.831322mm"
   height="89.18222mm"
   viewBox="0 0 258.06374 315.99999"
   id="svg2"
   version="1.1"
   inkscape:version="0.92.2 2405546, 2018-03-11"
   sodipodi:docname="tray.svg"
   inkscape:export-filename="/home/raphael/Documents/WORK/EUX/Ecogex/linux-logo/img/cool-linux-logo.png"
   inkscape:export-xdpi="348.75"
   inkscape:export-ydpi="348.75">
  <defs
     id="defs4" />
  <sodipodi:namedview
     id="base"
     pagecolor="#ffffff"
     bordercolor="#666666"
     borderopacity="1.0"
     inkscape:pageopacity="0.0"
     inkscape:pageshadow="2"
     inkscape:zoom="1.4142136"
     inkscape:cx="-54.424898"
     inkscape:cy="149.13497"
     inkscape:document-units="px"
     inkscape:current-layer="layer1"
     showgrid="false"
     inkscape:snap-global="true"
     fit-margin-top="0"
     fit-margin-left="0"
     fit-margin-right="0"
     fit-margin-bottom="0"
     inkscape:window-width="1366"
     inkscape:window-height="714"
     inkscape:window-x="0"
     inkscape:window-y="31"
     inkscape:window-maximized="1"
     inkscape:object-paths="true"
     inkscape:snap-intersection-paths="true"
     inkscape:object-nodes="true"
     inkscape:snap-smooth-nodes="true"
     inkscape:snap-bbox="true"
     inkscape:bbox-nodes="true"
     inkscape:snap-bbox-edge-midpoints="true"
     inkscape:snap-bbox-midpoints="true"
     inkscape:bbox-paths="true"
     inkscape:snap-page="true" />
  <metadata
     id="metadata7">
    <rdf:RDF>
      <cc:Work
         rdf:about="">
        <dc:format>image/svg+xml</dc:format>
        <dc:type
           rdf:resource="http://purl.org/dc/dcmitype/StillImage" />
        <dc:title />
      </cc:Work>
    </rdf:RDF>
  </metadata>
  <g
     inkscape:label="Calque 1"
     inkscape:groupmode="layer"
     id="layer1"
     transform="translate(547.84455,615.35352)">
    <circle
       style="color:#000000;clip-rule:nonzero;display:inline;overflow:visible;visibility:visible;opacity:1;isolation:auto;mix-blend-mode:normal;color-interpolation:sRGB;color-interpolation-filters:linearRGB;solid-color:#000000;solid-opacity:1;fill:#ffffff;fill-opacity:1;fill-rule:nonzero;stroke:none;stroke-width:0.36312667;stroke-linecap:butt;stroke-linejoin:miter;stroke-miterlimit:1;stroke-dasharray:none;stroke-dashoffset:0;stroke-opacity:1;color-rendering:auto;image-rendering:auto;shape-rendering:auto;text-rendering:auto;enable-background:accumulate"
       id="path4143"
       cy="-536.97021"
       cx="-453.55847"
       r="0" />
    <g
       id="g4768"
       transform="matrix(1,0,0,0.93767806,-6.9308024,-37.876821)">
      <g
         id="g4763" />
    </g>
    <path
       style="color:#000000;clip-rule:nonzero;display:inline;overflow:visible;visibility:visible;opacity:1;isolation:auto;mix-blend-mode:normal;color-interpolation:sRGB;color-interpolation-filters:linearRGB;solid-color:#000000;solid-opacity:1;fill:#000000;fill-opacity:1;fill-rule:nonzero;stroke:none;stroke-width:0.36312667;stroke-linecap:butt;stroke-linejoin:miter;stroke-miterlimit:1;stroke-dasharray:none;stroke-dashoffset:0;stroke-opacity:1;color-rendering:auto;image-rendering:auto;shape-rendering:auto;text-rendering:auto;enable-background:accumulate"
       d="m -422.0965,-605.39915 c -23.8567,0.68846 -48.12674,5.65815 -64.47461,26.88865 -17.85027,23.18164 -12.90876,44.06015 -13.62305,51.42762 -0.71428,7.36747 -54.10696,93.12207 -47,105.36425 3.97159,6.8413 21.64286,-4.0856 22,5.62606 0.35715,9.71167 -17.27065,106.8953 105.46289,106.8953 0.31762,0 0.61806,-10e-6 0.91504,-10e-6 0.31871,3.9e-4 0.6206,-0.003 0.92285,10e-6 122.73354,0 105.10379,-97.18363 105.46094,-106.8953 0.35714,-9.71166 18.02841,1.21524 22,-5.62606 7.10696,-12.24218 -46.28572,-97.99678 -47,-105.36425 -0.71429,-7.36747 4.22722,-28.24598 -13.62305,-51.42762 -16.34833,-21.2311 -40.61726,-26.20224 -64.47461,-26.89048 -1.24097,0 -2.17231,-0.009 -3.2832,-0.009 -1.04431,-7e-5 -2.273,0.009 -3.2832,0.0106 z"
       id="path4141"
       inkscape:connector-curvature="0"
       sodipodi:nodetypes="csssscscsssscsc" />
    <path
       style="color:#000000;clip-rule:nonzero;display:inline;overflow:visible;visibility:visible;opacity:1;isolation:auto;mix-blend-mode:normal;color-interpolation:sRGB;color-interpolation-filters:linearRGB;solid-color:#000000;solid-opacity:1;fill:#f2f2f2;fill-opacity:1;fill-rule:nonzero;stroke:none;stroke-width:0.34937018;stroke-linecap:butt;stroke-linejoin:miter;stroke-miterlimit:1;stroke-dasharray:none;stroke-dashoffset:0;stroke-opacity:1;color-rendering:auto;image-rendering:auto;shape-rendering:auto;text-rendering:auto;enable-background:accumulate"
       d="m -466.35822,-489.40474 c 12.06973,-0.33722 38.80931,36.84239 49.19387,39.83096 1.10934,0.258 0,0 0,0 0.15786,0.78458 -1.04303,0.24259 0,0 10.7553,-3.09429 35.47227,-41.26906 47.14988,-39.73434 12.90824,1.69646 2.20725,18.51081 7.70703,30.87258 13.84327,31.11535 32.44582,79.31801 12.58984,107.37676 -6.17305,8.72323 -20.51594,23.69389 -65.88672,24.18814 -1.07119,0.007 -2.11717,0.0171 -3.20898,0.0187 -1.09244,-0.002 -2.13909,-0.0126 -3.21094,-0.0187 -45.3685,-0.49485 -59.70988,-15.46508 -65.88281,-24.18814 -19.85598,-28.05875 -1.25343,-76.26141 12.58984,-107.37676 5.49978,-12.36177 -5.2012,-29.17612 7.70704,-30.87258 0.40338,-0.053 0.82008,-0.0846 1.25195,-0.0966 z"
       id="path4139"
       inkscape:connector-curvature="0"
       sodipodi:nodetypes="ccscssscccssccc" />
    <path
       style="fill:#f9f9f9;fill-opacity:1;stroke-width:1.25920689"
       d="m -450.70906,-508.82763 c -22.97907,-12.89453 -40.74827,-51.92537 -29.2004,-64.13998 3.2915,-3.48154 7.43979,-3.43784 15.92789,0.1678 5.41535,2.30038 9.01394,5.37404 17.67727,15.09866 13.35266,14.98843 19.33732,27.3392 19.33732,39.90707 0,6.6721 -0.39994,8.01251 -3.1138,10.43618 -4.62177,4.12752 -11.53075,3.63528 -20.62828,-1.46973 z"
       id="path2292"
       inkscape:connector-curvature="0" />
    <path
       style="fill:#f9f9f9;fill-opacity:1;stroke-width:1.25575173"
       d="m -405.2205,-506.83033 c -5.9524,-6.7918 -3.79081,-20.3225 5.88308,-36.82587 7.21516,-12.30887 16.44921,-22.09612 25.9676,-27.52328 8.83305,-5.0364 13.81339,-5.27954 18.27471,-0.89219 3.01867,2.96863 3.28034,3.9575 3.08495,11.6591 -0.61235,24.13755 -26.41555,56.1902 -45.23454,56.1902 -4.06834,0 -6.34166,-0.74334 -7.9758,-2.60796 z"
       id="path2294"
       inkscape:connector-curvature="0" />
  </g>
</svg>
